Genre:Action | Thriller
Language:Mandarin  http://www.imdb.com/title/tt1535495/
Subtitles:English
Source:DvD
Sample:Yes

General
Complete name :Triple Tap 2010 DvDRip Xvid FEEL-FREE
Format : AVI
Format/Info : Audio Video Interleave
File size : 1.20 GiB
Duration : 1h 57mn
Overall bit rate : 1 465 Kbps
Video
Format : xvid
Codec ID : xvid
Duration : 1h 57mn
Bit rate : 1 199 Kbps
Width : 688 pixels
Height : 288 pixels
Display aspect ratio : 2.35:1
Frame rate : 25.000 fps
Resolution : 24 bits
Bits/(Pixel*Frame) : 0.242
Stream size : 1 005 MiB (82%)
Audio #1
ID : 1
Format : AC-3
Format/Info : Audio Coding 3
Codec ID : 2000
Duration : 1h 57mn
Bit rate mode : Constant
Bit rate : 256 Kbps
Channel(s) : 2 channels
Channel positions : L R
Sampling rate : 44.1 KHz
Stream size : 215 MiB (17%)
Alignment : Split accross interleaves
Interleave, duration : 40 ms (1.00 video frame)
Interleave, preload duration : 500 ms

Plot
Champion competitive marksman Ken comes across an armored van robbery. He sees a policeman held hostage and shoots and kills four of the robbers. One of the robbers escapes and the policeman survives. The case is handled by Jerry Chang, whom Ken knows from having recently beaten him in a shooting match. Ken is found not guilty in court. Soon after, Ken is attacked by the escaped robber Pang Tao. Their confrontation reveals a very different background story and brings about a myriad of lies and traps and changes in relationships as Jerry and Ken try to outsmart each other.
 
http://www.starshare.ro/bitbucket/Triple%20Tap%202010%20%20DvDRip%20Xvid%20FEEL-FREE.avi_thumbs_%5B2010.08.27_12.38.31%5D.jpg
 
http://www.starshare.ro/bitbucket/Triple%20Tap%202010%20%20DvDRip%20Xvid%20FEEL-FREE.avi_snapshot_00.17.19_%5B2010.08.27_12.12.45%5D.jpg
 
http://www.starshare.ro/bitbucket/Triple%20Tap%202010%20%20DvDRip%20Xvid%20FEEL-FREE.avi_snapshot_00.38.47_%5B2010.08.27_12.12.52%5D.jpg